# xmcd
#
# Track frame offsets:
#	150
#	19937
#	35744
#	53196
#	67654
#	84191
#	102053
#	118143
#	130826
#	146536
#	162441
#	179241
#	194445
#	214073
#	235072
#	251934
#	267961
#	283743
#	297798
#	313340
#	329770
#
# Disc length: 4645 seconds
#
# Revision: 0
# Processed by: cddbd v1.5.2PL0 Copyright (c) Steve Scherf et al.
# Submitted via: EZCDAudioConverter 2.2.2.1
#
DISCID=4a122315
DTITLE=Sergio Fachelli - Hay Amores Y Amores
DYEAR=2005
DGENRE=Balada
TTITLE0=Quiereme Tal Como Soy
TTITLE1=El Unico Que Te Entiende
TTITLE2=Hay Amores Y Amores
TTITLE3=Lo Que Me Tiene Aqui (Con Laura Flores)
TTITLE4=Tu Eres Lo Que Yo Mas Quiero
TTITLE5=O Todo O Nada
TTITLE6=Volvere
TTITLE7=Contigo
TTITLE8=La Chica De Mis Sueños
TTITLE9=Lloras
TTITLE10=Sin Ti
TTITLE11=Amor No Te Quiero Perder
TTITLE12=Cuando Te Digo Que Te Amo
TTITLE13=Por Ti
TTITLE14=Por Tu Perdon
TTITLE15=Y Que Se Yo
TTITLE16=Y Solo Tu
TTITLE17=Respirar Mi Libertad
TTITLE18=Algo Magico Hay En Ti
TTITLE19=Mañana Por La Mañana
TTITLE20=Dejame Ser Tu Amante (Con Bachelli)
EXTD=
EXTT0=
EXTT1=
EXTT2=
EXTT3=
EXTT4=
EXTT5=
EXTT6=
EXTT7=
EXTT8=
EXTT9=
EXTT10=
EXTT11=
EXTT12=
EXTT13=
EXTT14=
EXTT15=
EXTT16=
EXTT17=
EXTT18=
EXTT19=
EXTT20=
PLAYORDER=
